<?xml version="1.0" encoding="utf-8"?>
<!-- Generator: Adobe Illustrator 22.1.0, SVG Export Plug-In . SVG Version: 6.00 Build 0)  -->
<svg version="1.1" xmlns="http://www.w3.org/2000/svg" xmlns:xlink="http://www.w3.org/1999/xlink" x="0px" y="0px"
	 viewBox="0 0 2176 3553" style="enable-background:new 0 0 2176 3553;" xml:space="preserve">
<style type="text/css">
	.st0{fill:#23163D;stroke:#FF2CD0;stroke-width:5;stroke-linecap:round;stroke-linejoin:round;stroke-miterlimit:10;}
	.st1{fill:#391D6B;stroke:#FF2CD0;stroke-width:5;stroke-linecap:round;stroke-linejoin:round;stroke-miterlimit:10;}
	.st2{fill:none;stroke:#FF2CD0;stroke-width:5;stroke-linecap:round;stroke-linejoin:round;stroke-miterlimit:10;}
</style>
<g id="base">
	<rect width="2176" height="3554.6"/>
</g>
<g id="table_borders">
	<path class="st0" d="M0,0v3554.6h2176V0H0z M1876.8,1769c-0.9,14,0.3,28.4-4,42c-5.5,17.1-6.1,35-11,52.3
		c-4.5,15.9-8.1,32.4-11.9,48.8c-3.9,17.1-10.3,33.4-15.7,50.1c-13.1,40.6-30,79.6-50.5,116.8c-13,23.6-26.2,47.2-43.4,68.4
		c-16.5,20.4-30.1,43.2-45.4,64.7c-13.7,19.4-31.4,35.2-47.9,52.1c-12.5,12.8-23.2,27.9-37.4,38.5c-25.3,18.9-47.7,41.2-73.4,59.8
		c-26,18.8-50.6,39.3-80.1,53c-17.2,8-34.6,15.4-52.1,22.9c-40.9,17.6-81.2,36.4-124.1,48.7c-15.2,4.4-30.5,8.8-46,11.9
		c-22.5,4.5-45.4,7.5-67.9,11.8c-25.5,4.9-50.9,9.5-77,9.8l-5,0.1c-7,1.3-14-0.1-21-0.4c-37-1.7-74.2-2-111-7.1
		c-24-3.3-48.4-4-72.1-10.7c-26.3-7.4-53.7-8.4-80.2-17.5c-33.6-11.6-66.3-24.5-97.7-40.8c-26.1-13.5-51.6-28.1-78.1-40.8
		c-37.3-17.9-69.6-43-100.6-69.5c-19.2-16.5-35.3-36.6-53.4-54.6c-25.7-25.6-54.3-48.4-76.9-77.1c-11.5-14.6-24.5-28.3-33.6-44.2
		c-11.1-19.5-24-37.9-34.3-57.8c-7.6-14.5-16.3-28.3-22.7-43.7c-7.7-18.4-24.1-45-32.3-59.3c-6.4-20.4-16.5-39.6-20.1-61
		c-4.6-27.1-13.7-53.2-16.7-80.9c-2-19-8.1-38-8.7-57.1c-0.9-24.4-5-48.5-3.7-73c0.4-7-0.7-14-0.9-21c-0.6-18-1.8-36.1-1.4-54
		c0.6-27.4,1.5-54.9,7.1-82.1c5-24.7,9-49.6,15.6-73.9c1.2-4.3,3.1-8.4,3.9-13c3.2-17,4.4-34.4,9.8-51.1c6.3-19.6,15.4-38,22.9-57
		c13.2-33.4,28.2-65.7,45.8-97.1c14.1-25.2,30.4-48.8,46.1-72.9c9.7-14.9,19.2-30.1,30.4-43.7c16.4-19.8,34.4-38,53.5-55.5
		c30.5-27.9,58.9-57.9,93-82c42.2-29.8,84.6-59.2,130.2-83.8c17.7-9.5,36.5-16.6,55.1-23.7c20.9-7.9,42.4-14.1,63.9-20.2
		c23.2-6.6,46.6-12.2,70-18.1c13.8-3.5,28.4-3.8,41.2-11.7c4.4-2.7,11.1-2.3,16.8-2.2c29.4,0.6,58.5-6.6,88-4.1c0.3,0,0.7,0,1,0
		c31.7-4.3,63.5-1.2,95,1.4c29.5,2.4,58.7,8.1,88,12.6c34.5,5.4,67.8,16,100.8,26.6c35.5,11.3,70.4,25.7,104,41.8
		c53.6,25.7,102.2,60.1,151.1,93.8c35.5,24.5,65.6,55.5,95.2,86.8c25.1,26.5,47.1,55.6,70,84c13.3,16.6,24,34.9,35.3,52.8
		c9,14.3,13.4,30.7,23.6,44.3c5.3,7.1,10.8,14.2,14.9,22c11.6,22.2,21.4,45.3,30.4,68.8c10,26,20.1,52,26.6,79.1
		c4.7,19.3,11.5,38,14.7,57.9c2.9,18,6.3,36.1,9.3,54.1c2.5,15.2,4,30.6,5.1,46c1.5,21,3,42,2.9,63
		C1879.7,1718.3,1878.4,1743.7,1876.8,1769z"/>
</g>
<g id="stuff_on_table">
	<path class="st1" d="M2175.3,1847c3.1,13.5-5.3,23.9-10.2,34.9c-15.3,34.5-31.5,68.5-48.5,102.2c-11.1,22-18.6,45.7-29.5,67.7
		c-11.5,23.2-25,45.5-37.8,68.1c-7.5,13.4-14.4,27.3-23.2,39.9c-25.1,35.9-39.8,76.8-57.9,116.1c-12.3,26.7-20.3,55.1-32.1,81.9
		c-12.5,28.3-26,56.3-40,84c-13.7,27-26.8,54.3-39,82c-13.2,29.7-28,58.7-41.8,88.1c-9.6,20.5-18.2,41.5-28.2,61.9
		c-11.8,24.3-24.9,47.9-36.8,72.1c-8.6,17.4-15.2,35.8-24.3,52.8c-16,30-34.4,58.8-49.4,89.3c-12.6,25.4-26,50.3-38.2,75.9
		c-4.9,10.4-7.5,21.9-11.2,32.9c-2.2,6.4-0.4,10.3,6,13.1c16.3,7.2,30.8,17.8,46.2,26.6c34.8,19.9,70.5,38.3,105.8,57.3
		c18.4,9.9,36,21.4,55.1,29.7c42.3,18.2,79.8,44.9,120.8,65.5c19.6,9.8,37.9,22.2,57.2,32.6c13.2,7.1,27.5,12.4,40.9,19.3
		c23.9,12.3,47.3,25.3,71.1,37.9c13.6,7.2,31.2,15.8,45,22.6V1847z"/>
	<path class="st1" d="M2176,324.3c-22.6,28.4-50,59.1-70.3,89.4c-13.2,19.7-25.3,40-35.3,61.4c-5.8,12.5-10.8,25.6-7.8,40.9
		c2.8,14.3,1,29.3,2.7,43.9c1.6,13.5,0.7,26.9-1,40c-3.9,29.8-16.1,56.2-36,79.2c-13.8,16-25.1,34.2-39.4,49.6
		c-16.1,17.2-34.3,32.3-51.7,48.3c-19.3,17.7-38.6,35.4-58,53c-23.1,20.8-46.2,41.5-72,59c-5.7,3.9-11.2,8.3-17.1,11.9
		c-4.7,2.9-9.9,4.3-15.6-0.1c2.6-4.7,4.4-9.9,7.8-13.7c17.5-19.2,31-41.9,50.8-59.2c3.5-3.1,6.1-7.2,9.1-10.9
		c11.4-14.2,26.6-24.9,37-40c11.8-17,27.9-30.7,38.2-48.9c1.8-3.2,4.6-5.7,1.7-9c-2.5-2.9-6.7-2.8-9.8-1.9c-3.3,1-6.3,3.5-9,5.8
		c-11.6,10-22.5,21.3-34.5,30.3c-15.7,11.7-31.2,23.5-46.4,35.8c-16.7,13.5-32,28.6-48.2,42.8c-8,7-16.8,13.2-24.9,20.1
		c-6.4,5.5-12.9,6-19.9,3.3c-0.9-9.2,4.4-14.1,8.8-19.4c22-26.7,45.2-52.5,65.7-80.3c19.2-26.1,39-51.8,58.4-77.7
		c3-3.9,3.1-8.2,1.4-12.6c-5.5-1.5-10.5,1.6-13.3,4.7c-14,15.3-31.7,26.1-46.5,40.5c-23.2,22.4-49.4,41.8-72.7,64.3
		c-11.4,11-23.3,21.4-35,32c-3.7,3.4-7.6,6.6-13,7c-7,0.6-7.8-1.1-6.2-8c1.8-7.8,8.1-12.2,11.7-18.3c8.3-14.2,18.8-26.9,29.9-38.3
		c24.2-24.8,44.8-52.2,64.4-80.6c5.3-7.7,14.5-13.4,15.1-23.8l0.1-8c-6.4,0-11.6,2.3-16,7c-34.3,35.5-71.7,67.7-108.2,100.7
		c-6.7,6.1-12.2,15.1-22.7,16.3l-0.9-7c-0.2-1.9,0.8-4.2,1.9-5.9c25.6-38.7,51.1-77.5,77-116c27.6-41.1,55.8-81.6,90.6-117.4
		c18.8-19.4,39.3-35.6,62.5-48.4c13.1-7.2,27.6-11.8,42.9-13.3c13.3-1.3,26.9-0.3,40-3.9l5.9-0.1c9.1-3.4,18.8-5.5,26.1-12.8
		c18.2-18.1,34-38.2,49.1-58.9c10.3-14.1,22.9-26.5,33.7-40.2c10.3-13.2,18.4-28.2,29.4-40.6c12.4-14,21.7-30.1,33.3-44.5
		c12.9-16.1,24.6-36.2,36.4-53.2V324.3z"/>
	<path class="st1" d="M2049.5,1166.5c10.8-5.3,14.5-14.6,16.6-25.5c3.8-19.3,5.9-38.3,1.2-58.1c-8.5-36-26.9-62.9-62.2-77
		c-27.9-11.2-72.9-2.1-89.2,20c-15.9,21.6-17.8,43.7-7,68.2c11.6,26.2,33,38.4,59.2,43.8c24.1,5,45.2,16.7,67,27.1
		C2039.5,1167.1,2044.6,1169.6,2049.5,1166.5"/>
	<path class="st1" d="M2175.3,871c0,0-7.3-4.8-12.1-6.6c-20.8-7.9-54,4.6-65.9,23.6c-4.2,6.7-6,14.7-6.6,22
		c-1.2,16.7-1.4,33.2,7.3,49.1c8.9,16.3,22.9,23.7,39.3,28.9c12.3,3.9,27.1,8.7,38,15.9V871z"/>
	<path class="st1" d="M2132.6,1422.2c11.4-1.5,22.7-3.6,33.7-5.3c4.4-0.7,9.7-1.1,9-7.9v-159c-12.2-2.8-23.9-2.7-36.1,1.8
		c-4.9,1.8-9.5,3.8-13.9,6.1c-2.7-8.3-5.6-18.9-9.2-26.8c-4.3-9.6-10.6-17.8-18.6-25.3c-29.9-28.4-69.4-12.5-81.3,21.2
		c-1.1,3.1-2.3,6.2-4,9c-3.8,6.3-5.3,12.7-5.7,19.2c-14.8-4.5-33.7-5.7-48.1-2.7c-22.5,4.8-31.9,34-20.2,54.5
		c3.8,6.7,8.7,10.8,14.3,13.4c-0.6,9.2,5.4,16.3,10.9,21.4c8.9,8.4,18.9,15.8,27.8,24.2c12.5,11.8,22.4,25.7,32.7,39.5
		c6.5,8.6,17.4,15,28.3,19.7c8.9,3.9,13.9,10.7,14.4,21.8c1,25,4.7,49.8,11.7,74c4.2,14.5,9.3,28.4,17.8,41.2
		c4.4,6.6,9.5,11.9,15.3,16.8c17.2,14.3,42.1,27.5,64,34c2.2,0.7-2.3,0.7,0,1v-24.9c-33.2-11.8-61.6-33.6-71.1-68.1
		c-5.9-21.4-11.2-43-12.6-65c-1.7-25.9-0.6-26.1,25.7-25.9C2123.8,1430.2,2129.4,1428.4,2132.6,1422.2z"/>
	<path class="st1" d="M436,862c-12.1-48.4-40.9-81.1-89-96c-39.1-12.1-74.9-6-107,20c-3,2.4-5,3.9-8.7,7.3c-2-3.3-4-7.8-5.2-11.4
		c-12.2-37.5-39-59.7-75.1-71.9c-21.4-7.2-62-2.4-77,14.9l-0.4-13c0-8.1,1.7-17-5.5-24.1C48.8,668.8,19.4,649.1,0,630.2
		c-3.6-3.5,1.6-7.1,0-11.2v1056c4.7-3.3,14.1-9.1,19-11.9c15.8-8.9,18.4-14.1,15-32.1c-2.9-14.9-0.3-19.8,14-26
		c5.1-2.2,9.3-5.9,14.9-7.2c4.7-1.1,4.6-5.5,5.2-9.8c1.8-12.8-3.1-26.9-4.2-39.5c12.5-3.7,19.7-14.7,30-21.5c2.4-1.6,1.9-3.4,1.2-6
		c-1.1-3.8-0.5-8-1.3-11.9c-2.3-12-3.3-22.5,10.9-29.3c16.3-7.8,28.5-19.5,23.4-40.8c-0.8-3.3-1.3-27-1.3-27
		c8.4-7.9,15.7-17.7,25.3-23.5c13-7.7,13.8-18,11.8-30.4c-0.5-3.3,0-6.9-1.2-9.9c-5.7-14.6,2-21.4,14-27.3L199,1305
		c-0.1-15.7,3.5-31.3,0.1-47c-0.3-1.2,0.2-2.3,1.9-3.1c11.9-5.9,20.3-17.1,33-22c3.5-1.3,7.2-3,7-7.9c-0.5-12.7-0.8-31.5-4-44
		c9.7-6.7,19.2-13.5,29-19.9c3.8-2.5,8.8-3.7,10-9.1l-5-7.1c-33.6-20.7-60.8-48.4-83.9-80c-16.7-22.9-28.8-49-41.6-74.2
		c2.3-1,7-3.3,9.4-3.6c15.2-2.4,28.1-8.3,39.3-16.7c7,14.6,22.2,28.1,29.5,34.9C236,1016.6,251,1021,266,1026
		c5.3,1.8,10.8,3.1,16,5.1c18.7,7,36.8,1.3,53.9-4.4c36.8-12.2,66.8-33.7,83.2-70.6c2.8-6.2,6.2-12.3,10-18
		C444.8,913.9,442.6,888.2,436,862z M129,875c-8.8,10.9-14.9,14.6-24.6,15c-3.3-2.9-6.6-9.9-7.4-14c-3.9-18.7-7.3-37.5-12.1-56
		c-1.2-4.7-2.4-9.4-3.3-14.1l0.2,0c21.3-9.9,40.2-0.8,48.4,11C141.3,833.1,140.2,861.1,129,875z M329.2,914.2
		c-11.2,16.2-31.2,19.4-44.1,4.7c-5-5.7-9.4-12.5-10.9-19.9c-3.2-15.7-0.2-27.4,12.9-36.9c9.4-6.8,21.1-7.7,34.9,1.9
		c10,7,13.9,17.8,14.5,29.5C333.6,900.1,333.7,907.8,329.2,914.2z"/>
	<path class="st1" d="M1594.2,3226.9c-6.5,3.6-14.1,3.7-21.2,2c-12.4-3-24.9-5.4-36-12.1c-3.3-2-12.3-5.4-15.7-5.3
		c5.8,5.6,6.3,12.9,11.2,18.7c26,31,48.6,64.5,65.6,101.6c13.2,28.8,19.5,59.4,25.9,90.1c4.5,21.8,7.6,43.7,9.7,65.9
		c2.1,21.8,0.8,43.6,2.2,65.2H836.1c4.4-30.7-0.2-62,8.7-92.2c3.7-12.6,4-26.2,7.4-38.9c5.1-18.6,12-36.6,20.4-54.2
		c15.6-32.4,32.1-63.9,56.2-90.9c17.2-19.2,32.2-40.5,50.4-58.6c34.2-34.2,77.8-53.9,121.8-72.2c23.7-9.9,49.6-11.6,74-19
		c15.9-4.9,32.7-3.4,49-5.7c30.9-4.3,61.8,0,91.9,7.7c27.1,6.9,54.5,13.2,80.9,22.4c21.9,7.6,45.4,11.2,65.1,24.6
		c2.7,1.8,5.7,1.4,8,0.8c15.9-4.3,30.4,0,43.9,7.3c14.2,7.7,28.2,15.5,43,22c11.2,5,25.2,5,35.6,11.7c10.5-13.8,25.7-25.7,35.3-40.3
		c1.1-1.6,4.6-3.5,8.2-3.9c21.4-2.3,42.7-5.1,64-7.8c12.3-1.5,15.6,1,18,13c3.2,15.8,5.4,31.7,10.8,47.1c2.4,6.9,1.6,26,4.2,25.4
		c-20.3,3.1-44.7,5.8-64.5,12.5c-8.7,3-17.7,2.1-25.8,5.3C1626.8,3255.1,1610.2,3240.9,1594.2,3226.9z"/>
	<path class="st1" d="M1856,69.2c-10.1-2.2-20-5.8-31-3.4c-22.7,5-46.2,2.7-69,7c-12.5,2.4-25.4,3-38,5.3
		c-10.2,1.8-23,13.7-20.6,19.7c3.4,8.8,5.4,19.4,13.8,24.9c8.9,5.8,16.4,13.1,24.7,19.4c9.2,7,8.6,12-0.9,17.9
		c-9.2,5.7-19.9,7-30.1,9.8c-24.2,6.6-48.5,12.8-73,17.9c-8.8,1.8-17.1,4.5-23.7,10.3c-18.5,4.9-37.3,10.4-53.1,20.2
		c-21.6,13.4-43,26.9-59.5,47.5c-19.7,24.6-44.5,43.6-72.5,58.6c-8.4,4.5-16.8,9.3-25.3,13.4c-5.9,2.8-12.4,3.7-18.7,5
		c-2.3-3.3-5.3-7.1-7.1-10.8c-14.1-30-37.8-51.6-61.9-73.1c-12.2-10.9-28.7-14.8-41.5-24.4c4.7-6,2-13.8,2.2-20.5
		c1-27.7,2.2-55.3,1.9-83c-0.3-31.9-10.2-60.2-34.8-82c-11.4-10.1-25.5-13.5-40-16.1c-13.3-2.4-26.7-2.5-40-1.8
		c-27.7,1.5-55.3,4.9-83,5.5c-17.4,0.3-34.6,3.1-52,3.6c-3.7,0.1-7.4,0.1-11.1,0h0.1c0-10.1,9-30,8.3-40.3H0v544c0,0,6.7,1.7,15,3.6
		c29.8,2.9,57.6,14.5,86.9,19.5c21.7,3.7,43.3,8.3,65,11.8c17.4,2.8,34,9.4,51.1,12.5c22,4,43.1,11,64.9,15.5
		c37.9,7.9,75.8,16.4,114.1,22.6c15.6,2.5,30.6,8.2,46.9,8c9.9-0.1,17.1,9.7,24.8,15.7c26.1,20.4,40.8,48.9,53.2,78.8
		c9.8,23.7,13.4,48.4,12.1,74c-0.6,12.4-0.1,24.7,1.8,37c0.5,3.5,0.8,5.3,4.9,7.4c11.2,5.6,22.7,4.9,34.2,4.4
		c6.4-0.3,9.9-5.5,8.9-11.8c-4.2-26.6-0.8-53.5-9-80.3c-8.4-27.4-23-50-38.7-72.9c-8.5-12.4-30.5-37.9-32.2-38.9
		c12.5,0,18.8,2.9,25,4.2c15.1,3.2,30.1,7,45,10.9c19,5,38.6,6.4,58,9.1c24.1,3.4,48,7.8,72,11.9c19.3,3.3,38.5,6.8,58,7.9
		c16.7,0.9,33.3,2,50,1.8c7.7-0.1,15.6-3,22-7.8c18.4-13.8,26-34.5,32.7-55c6.5-19.8,10.4-40.5,15.3-60.9c3.1-12.6,5.8-25.4,9.1-38
		c4.1-15.4,5.7-31.9,14-46c8.9,2.8,5.3,10.7,6.6,16.1c1.5,6.3,1.8,11.8,10.4,11.1c1.9-0.2,4.7,1.3,5.9,2.9
		c11.8,15.9,23.4,31.9,35.1,47.9c1.8,2.5,4,4.6,6,7c20.2,24.8,44.9,45.1,68.2,66.8c2.4,2.3,4.8,4.5,5.7,7.3
		c4.7,14.6,15.9,24.8,23.9,37.1c3.5,5.3,7.8,4.9,11,2.6c3.6-2.7,3.1-7.2-0.7-10.8c-2.4-2.3-4.9-6.1-6.9-8.7c4-4.3,2.2-8.6-2.2-16.2
		c-1-1.8-2.8-3.3-3.9-5c-6.2-9.6-16.2-17.4-18.2-29c-2.2-12.6-7.1-24.3-9.4-36.8c-2.1-11.4-4.5-23.1-9.2-34.2
		c-9.3-21.7-18.7-45.5-27.4-67.5c3.3-2.5,5.4-5.5,5.1-10.4c-0.4-7.2-5.5-11.2-11.9-11.8c-8.8-0.7-12.5-5.7-15.1-13.2
		c-1.2-3.6-3.8-6.7-5.9-10c-7.6-12.2-15.4-24.3-23-36.5c-5.2-8.3-10.4-16.6-15.6-24.9c4.5-4.4,7.8-12,8.5-17.6
		c2.8-25.5,9.4-50.1,15.1-75c5.9-25.7,15-63.4,21-89.1c20.4,1.7,40.7,3.8,61,6c19,2.1,37.4,7.1,56.1,10.7
		c22.3,4.3,44.3,9.3,66.1,15.9c15.1,4.6,29.9,9.7,44.8,14.5c12.1,3.9,21.9,14.1,33.1,18.1c-7.1,29.3,0.1,55.6,18.7,79
		c10,12.6,19.9,24.6,34.1,33c17.8,10.5,36.9,14,57.1,13.9c12.2-0.1,13,0.4,14.9,13c3.1,19.5,4.7,39.2,4,59c-0.2,4.7,2.1,8.7,3,13
		c1.9,9.3,2.4,19.5,4.1,28.9c-6.1,1.7-9.9,4.8-8.8,14.2c2.9,26,10.5,50.7,16,75.9c4.2,18.9,10.1,37.5,15.9,56
		c5.9,18.6,12.7,37,18.9,55.5c7.3,21.9,23.8,34.3,44.1,42.3c11.3,4.5,23.3,7.4,34.9,11.2c13.5,4.4,26.7,2.2,38.9-3.3
		c12.2-5.6,16.6-24.1,12.9-39.7c-3.7-15.9-9.1-31.4-13.8-47l-3-11c-4.3-11.4-6.1-22.9-11.1-33.9c-4.6-10-14.7-12.4-25.9-11.4
		c-17.2,1.6-26.7,13.4-36.9,24.4c-14,15.1-15.8,14.9-24.2-3.1c-5.5-11.8-6-24.7-8.7-37.1c-0.9-4.4-2.2-8.7-3-13
		c-4.7-23.5-10-46.8-16-70c-2-7.7-3.3-11.8-11.2-11.2c0.3-3.8,1.1-7.9,0.9-11.8c-1.5-35-5.5-72.1-11.9-106.5
		c20.3-10.8,42.4-22.3,63-32.4c28.6-14,51.3-35.6,75-56c15.1-12.9,26.9-29.3,43-41c14.3-10.5,31.1-18.4,47.9-24.3
		c0.6,2.3,2.4,4.3,3.8,6.4l1.3,0.8c1.7,0.3,3.3,1,5,1c26.1-0.7,51.5-6.6,76.9-11.4c19.9-3.8,39.5-10.2,59.3-14.8
		c22.9-5.3,44.2-14.3,64.5-24.3c31.8-15.7,41.9-45.9,43.1-79.4c0.1-3-0.3-5.9,0.5-9C1868.6,83.1,1863.4,70.9,1856,69.2z
		 M1239.9,219.4c-14.1-3.1-26-10-38-17.2c-6.7-4-14.3-7-21.9-9c-21.1-5.7-42.3-11.1-64-14.1c-18-2.5-35.7-7.2-54-8.1
		c-14-0.7-28.3-2-41.9-4.6c-12.4-2.3-24.7-4.1-37.1-5.1c0.7-1.3,3.8-12.9,3.9-14.3c3.2-26.5,11.2-54.1,17.2-80
		c3.3,0.4,6.6,0.6,9.9,0.8c14.3,0.9,28.7,0.2,43,0.2c23,0,46-0.2,69,0.2c32-3.2,82-16.2,102,17.8S1238.8,199.8,1239.9,219.4z
		 M1299.9,338.3c-7.1-2-10.4-7.1-14.8-11.4c-11.1-10.8-17.3-24.2-18.1-39.9c-0.3-6,1.4-11.9,5.3-16.6c9.1,4.8,18.2,9.6,26.8,15.5
		c22.9,15.7,43.3,36.3,55,61.9C1333.3,352.7,1318,343.3,1299.9,338.3z"/>
	<path class="st1" d="M1882.8,2276c-1.5-2.8-4.3-5-6.8-7.1c-22.1-17.5-42.8-36.8-65.9-53.1c-12.1-8.5-15.7-8.2-27.1,2
		c-30.3,27.2-56.8,58.8-82.9,91.1c-10.9,12.6-20,24.7-30.6,35.9c-12.8,13.6-24.7,22.4-36.2,37.1c-3.5,4.4-9.6,11.1-8,13.5
		c3.8,5.8,7.9,11,17.3,9.4c12.9-2.2,9.8-21.2,15.9-22.8c7.6-5.9,17.5-20.2,28.5-28.7c27.8-33.4,59.4-68.7,89.1-100.5
		c8.2-8.7,17.4-9.6,29.5-4c-5.8,4-8.1,7.3-11.4,12.1c-16.1,23.3-37.8,41.7-56.1,62.9c-16.2,18.8-33.2,36.9-48.7,56.2
		c-7.2,8.9-16.7,15.2-23.5,24.6c-12.3,17.1-25.6,33.6-40,49c-10.5,11.2-19.9,23.4-30.7,34.2c-2,2-4.2,3.8-6,6
		c-3.5,4.4-4.6,9.6-2.2,13.5c-27.3,26.7-55.9,54.4-82.6,81.7c-14.2,14.5-28.1,29.3-41.5,44.5c-18,20.5-38.4,38.9-57.7,58.3
		c-7.1,7.2-14,14.7-21.1,21.9c-2.5,2.6-9.2,9.3-15.2,18.6c-8.1,4.5-16.1,9-24.7,12.4c-16.1,6.5-32.6,12.2-47.9,20.2
		c-34.7,17.9-71.8,30.2-107.2,46.7c-26.4,12.3-53.1,23.9-80,35c-20.1,8.3-40.5,15.8-61,23c-16.3,5.7-31.2,14.2-47,21.1
		c-31,13.6-61.6,28.4-93.2,40.6c-20.6,7.9-40.5,17.1-59.7,27.6c-3.2,1.8-19.5,7.7-22.5,8.1c4-12.6,9.7-33.3,12.5-46.3
		c2.9-13.3,5.2-26.3,2.2-40.1c-2.3-10.5-5.5-20.9-9-30.7c-5.1-14.3-10-29.4-21.1-41.4c-21.5-23-50.5-32.7-78.3-43.1
		c4.5-16.9-1.3-33.2-8.2-47.6c-12.1-25.2-26.9-48.9-47.8-68.1c-22.5-20.6-48.9-34.9-77.9-44c-21.8-6.8-43.8-9.8-66.3-9.8
		c-15.3-14-44-39.6-59.7-53.2c-17.5-15.1-34.7-30.6-52.1-45.9c-19.2-16.8-39.3-32.6-55.7-52.3c-14.1-16.9-28.8-33.3-45.3-47.7
		c-22.7-20-44.1-41.2-65-63.1c-10.4-10.8-19.7-23.3-35.8-27.4c-8.3-2.1-13.1,1.8-18,6.4c-4.6,4.3-3.1,9.1-0.1,13.9
		c8.9,14.1,20.1,24.4,38,23.9c2.9-0.1,4.2,1.6,6,3.1c11.8,9.5,23.4,19.1,34,30l26,24c19.7,15.6,37.6,33.2,53.7,52.3
		c20.4,24.2,44.5,44.4,67.7,65.3c21.9,19.8,42.1,41.3,64.5,60.6c2.6,2.3,6.3,9.3,8.3,12.3c-6.4,0.8-12.8,1.8-19.3,2.4
		c-7.3,0.7-13.9,1.2-16.7-9.7c-1.7-6.6-5.7-13.6-9.2-20.2c-1.7-3.2-4.1-4.2-7.1-4.9c-2-0.5-4-0.6-6-1c-18.7-3.7-16.9,1.2-20.9-19
		c-2.9-14.6-14.2-15.4-25.1-16.9c-17.7-2.4-18.5-2.3-21.3-19.1c-2.8-17.1-13.9-29-23.6-42c-8.3-11-19.8-18.2-30-27.1
		c-10.1-8.8-19.5-18.5-29-28l-15-13.1c-5.1-3.4-10-6.9-16.1-3.7c-4.8,2.5-8.2,15.5-6,21.9c3,8.8,9.2,15.8,18,17.8
		c28.4,6.4,46.7,26.7,67.3,44.8c16.2,14.3,22.9,30.8,22.8,51.4c0,5.6,4,8.4,8.8,11.2c7.9,4.7,16.8,6.2,25.2,8.3
		c6.6,1.7,8.8,4.9,9.9,10.4c3,15.3,6.6,21.1,21,20.4c17.7-0.8,22,10.8,26.3,23.3c-9.5,2.9-19,5.8-28.2,9.3
		c-17.7,6.8-35.3,14.2-51.7,23.5c-3-7.1-10.8-9.5-16.3-13.6c-6.3-4.7-11.4-9.8-11.4-19c0-4.8-1.4-9.9-1.7-15
		c-0.6-10-9.4-14.3-16.1-17.5c-12-5.7-16.2-14-18.1-26.4c-2-13-6.4-25.4-22.6-28.2c-15.4-2.6-21.1-12.7-20.3-27.9
		c0.3-5.3,1.1-11.5-3.7-16c-8.4-7.9-16.9-15.8-25-24c-17-17.3-33.8-34.5-36.4-60.9c-1.2-11.9-16.8-17.4-26.7-11
		c-4.8,3.1-8.2,6.3-7.2,10.9c-6.2-1.2-9-7-12.9-10.8c-14.7-14.3-12.3-33.6-15.9-51.1c-3.7-18-20-17.7-29.1-11.2
		c-4.1,3-5.1,6.9-3.7,10.1c7,15.8,10.4,32.7,23.1,46.7c10.8,11.9,19.2,26.9,28.3,40.6c8.9,13.4,18.7,26.1,28.6,38.6
		c8.5,10.8,12.9,23.8,21.7,34.2c18.4,21.7,35,44.8,50,69c16.3,26.5,32.2,53.2,48,80c9.1,15.3,20,31.3,33.3,43.3
		c-2.2,7.4-3.5,15.2-4.8,22.7c-1.9,10.8-2.6,21.9-3,32.9c-14,3.7-37.3,15.3-48.2,24.2c-19.4,15.8-38.1,32.5-53.3,52.7
		c-9.3,12.3-12.5,27-16.8,41.1c-7.8,25.9-9,52.3-3.2,79c1.5,7.1,4.8,13.8,9.1,19.5c-15.2,19.8-36.1,34.3-52.3,53.3
		c-12.3,14.5-26,27.9-40.4,40.6c-7,6.2-11.9,15.1-19.2,21.8c-5,4.6-6.6,11.1-0.2,16.9c1.4,1.3,1.8,3.6,3.1,4.9
		c5.6,5.5,5.3,10.4-1,15.1c-16.1,11.7-30.5,25.5-43.8,40.2c-11.9,13.1-26.2,24-36.2,38.8l16,14c15.1,16.4,30,32.9,45,49.3
		c-5.7,15.2-5.1,48.4-5,62.5c0.1,13.7,1,25.5,2.3,39.2c1.3,13.7,4.4,28.5,11.1,40.8c9.5,17.6,17.5,36,31.3,51.5
		c18.8,21,36.8,41.9,63.2,54c7.7,3.5,15.3,7.4,23.1,10.8c19.8,8.8,40,16,62.1,15.9c11.3-0.1,22.3,2.4,34.1,0.6
		c12.1-1.8,23.7-2.6,35.1-8.3c7.6-3.8,14.6-8.6,22.7-11.7c13-5,24.5-14.1,33.8-24c23-24.4,41.1-51.8,48.6-85.6
		c5.6-25.2,10.6-50.2,6.6-76.1c-1.6-10.1-4.1-20-5.9-30c-4.5-24.9-16-47.1-29.4-67.7c-16.7-25.6-36-49.5-56.5-72.3
		c-14.6-16.3-30.8-30.6-53.1-33.5c-9.1-1.2-21.8-3.1-30.4-5.4c5.2-6.2,11.3-14.6,17.4-20.1c12.8-11.6,22.2-25.8,29.8-41.1
		c4-8,5-17,1.2-25.9c19,7.7,58,12.6,77,12.6c39.8,0.1,77.7-9.3,115.2-23.1c31.9-11.7,61.1-26.2,85.8-49.5c0.7-0.6,1.3-1.4,2-2
		c26.1-19.7,40.5-60,47.1-91.4c7.2-5.4,14.3-11.3,21.1-17.4c9.8-8.8,33.5-35.6,45.8-48.9c8.5,3.1,16.8,6.8,24.8,11
		c3.3,1.8,6.7,3.5,10.2,4.6c22.3,7.4,28.9,27.2,35.8,46.2c7.7,21.2,9,43.5,6.2,65.9c-3.2,25.9-15.3,49.1-32.8,69.2
		c-4.3-3.2-10.8-1.3-15.2,0.8c-18,8.4-35.7,17.4-54.2,24.6c-5.8,2.3-5.8,2.3-14.8,8.9c0.6,2.9,4.7,8,6,10.5l-2,2
		c-1.7,1.3-3.3,2.7-5,4c-10.8,8.4-12,19-2,38c-25,19.9-56.8,39.9-80.1,61.9c-7.2,6.8-15.8,12.2-22.8,19.2
		c-28.7,28.4-54.9,58.8-75,94c-9.7,16.9-14.5,35.7-17.2,54.9c-1,7.4-2.2,14.8-4,22c-4.2,16.1,1,31,5.2,46c4.1,14.5,9.1,28.7,13.9,43
		c7.3,21.7,21.3,39.4,33.8,58.1c14.8,22,31.8,47.7,48.8,68H635c-18.8-20.5-40.5-45.5-58.1-67.1c-9.8-12.1-16.8-26-25.4-38.7
		c-8.9-13.1-15.6-27.4-21.5-41.5c-10.3-24.6-14.2-51.1-8.9-77.7c4.1-20.4,10.1-40.7,22.1-57.9c23.9-34.3,54.9-62.3,84.7-91.2
		c21.8-21.1,45.7-39.8,68.3-59.9c12.1,14.6,16.9,16.1,35.8,8.6c1.9,2.4,4.1,4.7,6.7,6.8c5.6,4.4,9.7,5,15.3,2.6
		c15.4-6.6,30.7-13.3,46-20c3.7-1.6,7.3-3.4,11-5c26-10.7,52.2-20.8,77.9-32.3c11.6-5.2,23.1-10.9,34.3-17.4
		c16.9-9.7,35-17.2,52.8-25.3c11.2-5.1,22.5-9.7,34-14c26.6-10.2,53.7-19.2,79.9-30.3c22.9-9.7,44.8-21.7,67.1-32.7
		c4.8-2.3,13.5-6.8,23.4-7.6c-4.2,4-8.3,9.2-11.9,14.3c-14.7,20.8-31.4,40.2-50,57.8c9,14.7,19.6,27.2,31.6,38.4
		c6.4,6,12.9,11.9,20,16.9c9.7,6.8,15.6,5.8,22.9-2.9c7.8-9.3,15.6-18.5,23-28c23.6-30.5,48.9-59.7,75.3-87.7
		c26.4-28,52.2-56.5,77.8-85.2c3-3.3,5.7-6.7,5.3-11.3c17.6-16.7,41.3-23.4,62.6-33.8l24.8-10.7c7.6-5.8,17-6.3,25.2-10.2
		c18.9-9.1,37.8-18.6,57-26.9c35.5-15.4,71.3-30,106.9-45.2c6.5-2.7,14.1-5.7,14.2-13.9c0-5.5,2.3-7.7,5.6-11.2
		c5.7-5.9,12.7-9.6,19.4-13.6c5.9-3.5,7.8-7.5,8.1-14.2c0.4-9-2.6-16.9-5.3-25c-5.6-16.7-11-33.4-23-47
		c-11.1,3.1-23.5,5.1-33.8,10.6c-2.4-3.4-6.2-5.7-9.4-8.4l-5.8-1.2c-10.1,2.8-23.2,12.9-34.6,10.9c3.2-7.4,11.4-17.2,16.6-23
		c17.7-19.3,34.5-39.4,52.9-58.1c12.7-13,24.1-27.2,36.1-40.9c25-28.3,49.9-56.8,75-85c24.8-27.8,49.7-55.6,75.1-82.9
		c14.7-15.9,27.2-33.4,41-50C1886.1,2281.3,1884.1,2278.5,1882.8,2276z M216.4,2476.8c-3.5-7.5-9.6-11.9-14.4-17.8
		c-1.5-1.9,2.4-8.4,2-11c2,0.7,4.2,1,6,2.1c11,7.1,14.3,20.7,24,28.9c-0.8,4-0.2,7.4,1.1,10.5
		C227.3,2488.5,219.2,2482.8,216.4,2476.8z M294.5,2566c-0.5,2.3-0.7,4.4-0.5,6.2c-12.6-6.8-19.7-20.4-28.8-30.3
		c-1.3-1.5-0.6-7.4-0.6-10.1c4.8,2.8,10.1,5.1,15.5,7.3C292.2,2544,297.2,2553.4,294.5,2566z M325.9,2625.5
		c-12.2-10.9-23.7-24.4-25.9-41.5l0.8-2.6c1.2,0.6,2.6,1.2,4.2,1.7c10.2,3.3,17.7,10.5,25,17.9l-1,5
		C329.1,2612.4,328.4,2619.4,325.9,2625.5C326.6,2626.1,325.1,2624.9,325.9,2625.5z M330,2632l0.8-2.4c3.6,2.1,7.4,3.8,11.2,5.3
		c7.1,2.8,11.8,8.2,16.9,13.2l-14,15.5C338.1,2653.9,329.9,2644.9,330,2632z M359.8,2648.9l-13.9,15
		C349.5,2658,354.1,2652.9,359.8,2648.9z M284,3134c5.3,0.3,11.6,2,15.9,5.1c9.6,6.9,20.1,12.9,28.1,21.9
		c17.7,20,36.1,39.4,52.8,60.1c28.5,35.2,47.3,75.1,51,120.9c0.7,9.3,0.1,18.9-2.8,28c-7.2,22.3-18.3,42.7-34.2,59.8
		c-10.2,11.1-19.9,23-33.8,30.2c-14.8,7.7-29.6,14.8-45.9,19.4c-12,3.4-23.8,6.8-36.1,6.4c-19.1-0.6-37.4-4.5-55.1-12.6
		c-25.7-11.6-49.2-26.4-68.6-46.5c-10.8-11.2-21.2-23.3-28.4-37.6c-7.9-15.6-9.9-32.4-12.9-49.1c-2-11-4.8-21.8-3.8-33
		c0.9-10,0.4-39.3,8.9-57.3c5.4-7.1,10.6-14.4,17.6-20.2c18.9-15.5,39.7-34.9,54.7-54.5c3.1,3.1,6.2,6.3,9.7,10l2,1
		c3.3-1.7,7.1-1.5,10.2-4.8c9.2-9.8,19.1-18.9,28.8-28.2c6.6-6.3,12.3-13.6,18.2-20.5C260.2,3132.5,271,3132.5,284,3134z
		 M313.9,2923.4c-6.7,2.3-10.8,7.8-15.2,13.4c-6.3,8.1-14.2,15.1-21.9,22c-1.9,1.7-5.5-0.2-7.8-1.9c-4.7-3.4-9.6-5.6-14.6-6.8
		c-9-4.7-14.7-28.3-16.1-36.3c-2.6-14.5-2.1-29.2,0.4-44c2.6-15,6.4-29.5,16.5-40.7c12.7-14.2,26.6-27.5,41-39.9
		c6.3-5.5,23.5-18.3,34.9-22c2.4,18.9,8.9,36.8,18.7,53.8c7.4,12.8,24.4,38.4,35.8,48.3c-4.4,3.9-8.7,8.1-12.8,12.5
		c-10.8,11.8-23.1,23.1-34.8,34.1c-3.2-1.6-9.8-5.3-12.8-7.6C319.1,2911.5,315.8,2916.6,313.9,2923.4z M528,2774.9
		c-16,10.3-34.1,16.5-50.8,25.4c-17.2,9.2-32.6,21.2-47.7,34c-2,1.7-14.4,9.8-24.6,17.9c-2.5-3.6-6.1-7.1-8.8-10.3
		c-15.5-18.4-24.5-39.7-30.2-62.9c-1.8-7.2-2-14.7-2.6-22c20.6-6.1,42.8-7.5,63.8-8.5c22.2-1.1,44.8,0.9,66.9,3.9
		c14.5,1.9,34.5,6.3,46.5,16.9C534.6,2771.8,528.8,2774.4,528,2774.9z M571,2794.8c8.9-2.2,13.3-3.6,16.6-2.4s5.7,4.8,10.4,12.6
		c6.3,10.5,14.5,36.2,14.8,49.1c-7.2,3.6-14.8,6.7-22.8,8.9c-21.7,6-42.6,14.5-64.1,20.6c-21,5.9-42.9,7.6-64.9,3.6
		c-6.5-1.2-24.3-7.6-33.5-15.1c16.2-13.5,33.3-26.8,51.5-35C509.7,2823.1,537.6,2803.2,571,2794.8z M610,2916
		c-14.9,26-42.1,40.7-68,55c-21.5,11.9-43.9,21.5-68,25.8c-19.2,3.4-38.2,8.8-58,8.3c-8.7-0.2-17.3,1-26,0.8
		c-22.5-0.4-45.8-5.4-65.7-16.4c2.6-3.4,3-9.5,2.9-14.3c3.9,3.3,7.1,1.7,11.7-2.3c8.8-7.5,16.7-16,25.1-23.8c4.2-3.9,4.3-7.4,0-11
		c-1.8-1.5-2.9-2.7-4.6-4.3c15.5-14.9,27.7-28.3,44.4-41.9c2,1.3,6.1,3.1,8.2,4.2c29,15.7,58.9,26.6,93,24.4
		c27.7-1.8,54.5-5.4,81.1-14c13.3-4.3,25.9-9.6,37.8-16C621.9,2897.8,616.7,2904.3,610,2916z M657.7,2823.7
		c-4.9,3.9-10.7,7.8-15.7,11.5c-2.5-3.6-4.6-8.5-5.1-13.2c-1-8.9-14.6-27.5-20.9-33.6c21.7,1.1,43.4,1.7,65,3.8
		c2.5,0.2,6.8,1,9.2,1.3C682.6,2805.4,668.3,2815.2,657.7,2823.7z M701.3,2761.2c-7.8-1.2-15.6-2-23.4-2.9
		c-12.9-1.4-25.4-5.5-39-3.7c-16.2,2.1-32.7,2.6-48.9,4.8c-12.4-11.2-25.8-17.8-33.3-21.5c-15.5-7.5-18.6-7-35.8-8.9
		c-13.3-1.5-26.7-1.7-40-3.4c-3.8-0.5-6.8,1.8-10,1.1l-9-0.4c-20.3,0.2-40.7,0-61,0.7c-7.4,0.2-32.3,3.5-39.7,4.4
		c-0.2-8,1.3-14.7,5.7-22c15.1,6.1,26.1-4.7,35.8-12.8c7.5-6.3,2.5-14.6-0.8-21.7c-2.1-4.7-4.2-12.8-4.2-12.8
		c17.3-9.7,35.9-16.5,54.2-24.2c16-6.8,33-8.3,49.8-11.4c1.9,10.8,18.4,17.3,29.3,16.4c0,0,0.5,2.8,2,6c3.1,6.3,9.4,8.2,15,11
		c9.8,4.8,20.3,1.7,25-6.9c4.3-8.1,1.9-14.6-9.1-20.8c-4.4-2.5-8.4-7.6-9-12.6c5.1-0.3,11.1-0.4,16.1,0.7
		c20.5,4.4,38.9,14.6,57.1,24.7c27.4,15.3,46.5,38.5,62,65C696.6,2721.4,703.2,2747.2,701.3,2761.2z"/>
</g>
<g id="etching_lines">
	<path class="st2" d="M1361,3231c-12.9-4.1-22.4-14.2-34.9-19.3c-9.4-3.9-18.3-10.1-25.9-16.9c-8.1-7.1-16.1-6.3-24.2-2.6
		c-29.8,13.4-59.1,27.8-83.1,50.8c-6.6,6.3-10.7,14.2-15,22c-2.5,4.6-2.4,9.3-0.9,14c12.4,40.5,35.9,74.3,63,106
		c20.3,23.8,45.7,41.9,70.1,60.9c12.5,9.7,27.3,16,41.9,22c7.5,3,16.1,2.2,22.8-2c19.7-12.3,43.2-17.8,61-33
		c17.1-14.6,33.9-29.3,42.7-51.6c4.1-10.4,9.6-20.8,14.7-31.1c4.1-8.2,4.5-15.3,0.7-23.2c-12.6-25.7-25.5-51.3-37.9-77.1
		c-3.6-7.4-12.2-12.3-11.1-22"/>
	<path class="st2" d="M1310,3177c-4.1-10.3-14.1-7-21-7.5c-22.9-1.9-46.1-3.3-68.9-2c-22.7,1.3-45.3,5.6-67.1,13.4
		c-19.5,7-39.7,11.9-58,22.1c-36.5,20.4-72.7,41-100.2,73.9c-9.7,11.6-22,21.2-29.6,34.3c-13.4,23.2-25.9,47-38.1,71
		c-7.2,14.2-11.2,29.8-16.4,44.8c-6.5,18.6-9.3,37.7-10.5,57.1c-1.1,17.3-1.5,34.7,0.9,52c0.9,6.4,2,12.7,3,19"/>
	<path class="st2" d="M771.5,2998.4c-10,11.5-19.6,23.8-29.4,35.6c-18.7,22.4-37.5,36.2-60,54"/>
	<path class="st2" d="M688.4,2793.1c12.5,1.8,24.8,4.9,36.6,9.2"/>
	<path class="st2" d="M592,2793c4.4-4.6,10.1-5.3,16-5c2.7,0.1,5.3,0.3,8,0.4"/>
	<path class="st2" d="M4,203c1.2,6,6,7.2,10.9,9.1c54.7,21.1,104.5,50.5,149.1,88.8c20.3,17.4,43.9,30.1,65.8,45.3
		c44,30.6,80.4,67.9,103.6,117.6c11.4,24.4,17.2,51.1,31.5,74.2c17.7,28.7,36,56.7,62.9,78.2c6.2,5,15.1,9.4,15.2,19.7"/>
	<path class="st2" d="M2049.5,1166.5c10.8-5.3,14.5-14.6,16.6-25.5c3.8-19.3,5.9-38.3,1.2-58.1c-8.5-36-26.9-62.9-62.2-77
		c-27.9-11.2-72.9-2.1-89.2,20c-15.9,21.6-17.8,43.7-7,68.2c11.6,26.2,33,38.4,59.2,43.8c24.1,5,45.2,16.7,67,27.1
		C2039.5,1167.1,2044.6,1169.6,2049.5,1166.5"/>
	<path class="st2" d="M230.6,794.7c2.1,6.5,4.2,13.5,6.4,20.3c3.9,11.8,2.9,23.9,3,36c0,8-0.6,16.1,0.1,24
		c2.6,26.9-5.5,49.9-21.9,71.1c-7.2,9.4-15.1,17.6-23.9,24.2"/>
	<path class="st2" d="M828.1,2961.5c-4,12.6-9,24.8-15.7,36.2c-12.9,22-26.5,44.2-47.5,60.3c-18.4,14.2-34.7,30.6-51.2,46.7
		c-5.7,5.6-11.6,11-17.5,16.3"/>
	<path class="st2" d="M540.5,2769.3c6-2.5,12.2-5,13.6-5c7.8-0.3,15.3-0.6,23-2.1c4.4-0.9,8.7-1.6,13.1-2.2"/>
	<path class="st2" d="M385.6,2869.3c1.6-1.4,11.2-9,21-16.8"/>
	<path class="st2" d="M231,1127c-10.3,5.2-13,16.6-17.4,25.3c-10.4,20.6-22.3,40.2-34.4,59.8c-12.5,20.3-22.8,41.9-34.3,62.8
		c-11.1,20.1-23.1,39.8-33.8,60.1c-15,28.5-31.9,56-46.4,84.8C54,1441.5,41,1462,29,1483c-7.3,12.7-14.3,25.6-22.3,37.8
		c-1.9,2.9-0.3,6-2.7,8.2"/>
	<path class="st2" d="M1454,3226c16,11.5,33.3,21.7,44.9,38.1c10.8,15.4,19.9,31.9,28.2,48.9c6.8,13.9,14.3,27.5,20.2,41.9
		c10.3,25.4,18.8,51.1,23.8,78.1c3.7,19.4,9.7,38.5,11.4,58.1c1.4,16.4,2.8,33.4-1.3,50c-0.9,3.4-0.1,7.3-0.1,11
		c-0.1,2.7-1.6,3.4-4,2.5"/>
	<path class="st2" d="M187,1067c-10.7,8.5-16,20.9-22.8,32.1c-5.4,8.9-9.4,18.6-14.2,27.9c-3.7,7.4-9.4,13.5-9.5,23
		c-0.1,5.4-5.5,10.7-8.5,16c-13.9,24.7-27.7,49.6-41.2,74.4c-9,16.6-22.1,30.4-29.8,47.5c-10.1,22.4-21.6,44-35.7,64.2
		c-6.2,8.8-14.6,16.3-18.2,26.8c-1.3,3.9-2.1,8-3.1,12"/>
	<path class="st2" d="M2177,2839c0.4,6.7-0.7,12.8-3.8,19.1c-11.4,22.8-23.4,45.4-32.9,69c-12.5,31.1-28,60.7-42.5,90.8
		c-13.9,29-29.8,57.1-43.6,86.2c-7.7,16.3-14.1,33.2-23.2,48.9"/>
	<path class="st2" d="M531.6,2598.3c-7.5,0-15.1,0.3-22.7,1c-3.6,0.3-7.2,0.7-10.7,1.2"/>
	<path class="st2" d="M848,613c-4.4-0.1-7.5,3.1-8.8,6.1c-6.9,16.4-21.8,22.3-36.2,28.9c-5.7,2.6-11.5,5.1-17,8
		c-15.9,8.5-32.6,4.5-49,2.8c-22.4-2.3-44.7-5.5-67-8.9c-15.8-2.4-31.5-5.4-47-9.1c-11-2.6-22.6-2.9-33.1-7.7
		c-1.9-0.9-4.8-0.7-6.9,0c-13.6,4.2-25.3-1.4-37-7.1"/>
	<path class="st2" d="M1180,2954.8c4.2-4,8.8-7.3,14.2-9.3c10.6-4,20.8-8.4,30.9-13.4c23.9-11.9,47.9-23.6,72-35
		c19.2-9,38.7-17.3,57.9-26.1c4.5-2,8.7-4.6,13-7"/>
	<path class="st2" d="M1180,3330.9c-14.7-1.5-28.1,2.2-41,9c-25.6,13.5-49.6,29-69,51c-19.6,22.1-28.5,48.7-35.4,76.9
		c-5.4,22.1-6.7,43.8-3.6,66.1c1,6.7,2.6,13.3,3.9,20"/>
	<path class="st2" d="M1750,2919c-10,5.4-10.6,16.8-14.3,25.3c-5.6,13-10.5,26.4-17.9,38.6c-3.4,5.6-0.9,7.8,3.2,10.1
		c25,14,48.4,30.7,74.9,42.2c18.1,7.9,35.5,17.7,53.1,26.8c35.4,18.3,70.9,36.2,105.9,55.3c11,6,22.1,11.8,33.1,17.9
		c2.8,1.6,5.2,2.2,8.1,1.8"/>
	<path class="st2" d="M591,4c6.7,1.2,7.4,7.7,9.8,12.1C616.3,44,632.3,71.5,650,98c5.8,8.6,6.7,19.9,16.9,26.2"/>
	<path class="st2" d="M710.3,190.7c22,24.7,38.5,53.4,58.3,79.6c12.1,16,20.8,34.5,31.4,51.7c11.8,19.1,24.1,37.9,35.9,57.1
		c5.4,8.8,9.5,18.4,15.2,26.9c10.5,15.6,22.9,30.1,32.5,46.3c5.9,10.1,22.6,33.3,20.5,36.8"/>
	<path class="st2" d="M160,1023c-7.7,4.6-11.1,13.1-14.6,20.2c-15,30.1-33.4,58-49.9,87.1c-23.5,41.4-49.2,81.6-71.8,123.6
		c-7.1,13.2-15.3,25.7-19.7,40.1c-0.5,1.5-0.1,3.3-0.1,5"/>
	<path class="st2" d="M1392,495c-6,0.4-12.2,0.1-17.9,1.7"/>
	<path class="st2" d="M504,651c-17-10.3-32-22.4-39-42"/>
	<path class="st2" d="M978,190.9c-10.3-0.9-20.6-1.6-31-2.3c-37.7-2.3-75.4,0.2-113-0.3c-14.3-0.2-28.7-1.9-43,0.6
		c-4.8,0.8-8.9-2.9-14-3.2c-15.4-1.1-31.1-2.2-45.9-6c-27.2-6.9-54.1-14.8-80.1-25.7c-10-4.2-18.4-10.6-27.2-16.8
		c-18.5-13.1-37.1-26-51.6-43.4c-14.5-17.3-25.7-37-33.8-58c-3.5-9.1-3-19.9-4.4-29.9"/>
	<path class="st2" d="M1272.6,269.9c-10.6-5.6-21.7-10.5-33.3-14.6"/>
	<path class="st2" d="M1292,3189c10-10.3,21.7-13.5,36-11.3c15,2.3,30,4.1,43.9,10.4c12.2,5.5,24.9,10.7,35.8,18.2
		c10.6,7.4,22.9,10.9,33.5,18.4c7.1,5,10.7-2.2,13.8-7.7c3.6-6.4,7.1-12.8,11-19c5-7.8,10.8-9.8,18.9-5.9
		c12.7,6.1,25.7,11.3,36.4,21.5"/>
	<path class="st2" d="M148,1188c-10,19-19.6,38.2-30.1,56.9c-14.9,26.6-30.5,52.8-45.9,79c-11.2,19-22,38.3-32.3,57.9
		c-5,9.5-13,17.5-19.7,26.1c-8.1,10.4-13.9,21.9-16,35"/>
	<path class="st2" d="M732,3129.6c-5.7-7.3-9-15.9-14-23.6"/>
	<path class="st2" d="M658.1,2868.6c-10.9,8.2-22.2,15.5-34.1,21.8"/>
	<path class="st2" d="M1379.3,343.5c-8,1.5-16.2,2.4-24.1,4.3"/>
	<path class="st2" d="M1385,376c-7.3,3.9-16.2,2.3-23,7.5"/>
	<path class="st2" d="M4,159c0.3,4.5,4.6,7.5,7,7.6c17.6,1.3,31.6,12.9,48.9,16c12.3,2.2,23.5,10.7,34.9,16.8
		c21.9,11.6,45,20.7,65.4,35.4c15.3,11,28.8,24,43.9,35.2c5,3.7,9.9,7.6,14.7,11.4c0,0,25.7,18.6,33.4,25.5
		c16.1,14.3,34.3,26.4,49.5,41.5c17.6,17.4,32.7,37.4,45,58.9c13.1,22.9,29.5,43.5,43.3,65.8c21.8,35.2,41.7,71.4,58.9,109
		c3.4,7.5,5.7,15.4,10.9,22.1c1.8,2.4,3.3,3.7,6.2,3.4c21.9-2.3,42.9,3.3,64,7.6c1.8,0.4,3.4,1.9,5,2.9"/>
	<path class="st2" d="M228,261.5c10.9-10.3,16.8-23.9,23.8-36.6C274,185.2,295.3,145,317,105c2.5-4.6,2.9-10.1,7-14
		c2.6-2.6,4.9-5.5,9-3c8.7,5.3,18.2,8.9,27.2,13.7c22.3,12.1,45.7,22.1,69.3,31.4c36.8,14.5,72.7,31.1,107.6,49.8
		c6.2,3.3,10.9,6.4,5.2,14.8c10.3,8.1,20.5,16.2,30.7,24.3c11.6,9.1,16.3,21.3,11.7,34.9c-5,14.7-6.9,30.4-14.7,44.1
		c-18,31.3-40.9,57.6-73.9,74.1c-8.7,4.4-17.7,4.6-27,5.1c-9.3,0.5-18.3-2.3-28.2-0.2c-7.3,1.6-16.6-5.5-24.8-9.1
		c-33.5-14.8-64.4-34.5-97-51.1c-21.9-11.2-43.2-23.5-65.1-34.7c-5.2-2.7-10.5-5.7-16.9-6.5c-4.3-0.6-8.6-2.9-8.4-9.7
		c0.1-4.2-3.1-7.8-7.3-11.4c-23-19.9-43.9-42.7-48.7-73.7c-4.2-26.9-1.1-53,18.7-76.5c14-16.6,31-18.8,48.7-21.1
		c22.2-2.9,44.3,1.1,65.9,6.9c4.3,1.2,9.4-1.1,13.1,2.8"/>
	<path class="st2" d="M1897,2678c-13.8-0.4-22.5,9.2-33.2,15.7c-21.6,13.2-28,36.2-38.8,56.3c-20.1,37.7-34.3,78.1-53.5,116.2
		c-7.1,14.1-12.7,29.3-19.5,43.8c-1,2.2-2.6,5.2-1.9,6.9c6,13.5,4.5,31.1,20.8,39.1"/>
	<path class="st2" d="M2177,2991c1,5-1.7,8.9-3.9,13c-9.6,17.8-17.2,36.4-25.2,54.9c-13.9,32.3-27.5,64.8-43.8,96.1
		c-4.5,8.6-7.6,17.8-13,26c-5.8,9-4.7,12.3,5.9,17.8c16.1,8.4,33.1,15.3,48.8,24.4c10.6,6.2,22.3,10.8,31.2,19.7"/>
	<path class="st2" d="M642.9,2835.2c-9.6,7.1-19.5,13.6-30.1,18.9"/>
	<path class="st2" d="M2052,2145c-0.9,5.3,3,7.9,6,11c15.1,16,21.7,35.8,26.3,56.9c3,13.3,4,26.7,5.5,40.1
		c2.6,22.6-4.6,43.7-10.7,65c-8.9,30.9-28,55.7-49.6,77.5c-26,26.1-58.7,43-95.5,49.2c-10.8,1.8-22.8,2.7-32.9-4.6"/>
	<path class="st2" d="M427.5,2872c-8.1,6.8-16,13.6-23.7,19.8"/>
	<path class="st2" d="M544,200c-8.6,6.5-9.1,17.4-13.8,26.1C505.2,272,480,317.8,452,362c-2.8,4.5-5.6,9.3-3,15"/>
	<path class="st2" d="M397.8,2662.2c-4.3,2.4-8.6,5.1-12.7,7.9c-4.9,3.4-6.6,8.9-6.1,14.9"/>
	<path class="st2" d="M555.8,2619.1c-5.6,0.3-11.2,1.4-16.6,3.2c-2.3,0.8-4.5,0.9-6,0.5c-5.5-1.6-10.9-1.1-16,0.3
		c-5,1.4-10.2,2.5-15.3,3.4"/>
	<path class="st2" d="M2008.2,1255.2c-0.6,8.4,0.7,17,1.1,25.8c0.9,17.4,6.3,33,11.6,49"/>
	<path class="st2" d="M835,3c10,2.6,16.8,10.7,25.8,15.3c30.7,15.6,61.9,29.4,95.1,38.8c15.9,4.5,31.9,8.1,48.2,9.9"/>
	<path class="st2" d="M1587.6,2508c0.8,1.3,1.9,2.7,3.3,4.1c15.8,16,33.6,29.3,52.1,41.9"/>
	<path class="st2" d="M1841,2840c17.3,12.3,28.7,28.9,30.6,50c1.3,13.8-3.6,27.5-9.8,39.9c-10,20-21.2,39.4-31.8,59.1"/>
	<path class="st2" d="M999.8,479.4c-1.4,1-3,1.9-4.7,2.8c-16.3,8.4-32,17.9-48.1,26.7c-6.1,3.4-12.6,6.1-19,9.1"/>
	<path class="st2" d="M823,199c6,13.7,15.2,25.4,23,38c8.5,13.5,16.8,27.1,26.2,39.9c4.7,6.4,8,13.5,11.6,20.3
		c8.4,15.9,21.3,28.4,30.3,43.8c6.3,10.7,12.7,21.2,19.3,31.7"/>
	<path class="st2" d="M793,146c-10.2-12-17.2-26.1-26-39c-20.2-29.4-40.7-58.7-60.9-88c-4.2-6.1-4.4-15.9-15-16"/>
	<path class="st2" d="M1491,607c9.2,25.1,15.3,51,21,77c4.8,21.5,7.5,43.4,16,64"/>
	<path class="st2" d="M1864,95c-35.3,2.7-70.9,2.5-106,7.9c-17.9,2.8-36,4.7-54,7.1"/>
	<path class="st2" d="M2177,2294c-17.2,3-28.4,14.8-38.9,27.1c-21.6,25.2-34.2,54.4-35,87.9c-0.5,21.9,8.4,41.5,17,61
		c10.1,22.8,26.6,38.8,50.9,46.2c2.1,0.6,7-0.4,6.1,4.8"/>
	<path class="st2" d="M1011.9,40.3c-30.4-0.8-59.3-8.6-87.9-18.4c-13.1-4.5-27-7.4-38.2-16.6c-2.5-2.1-7.2-1.5-10.8-2.2"/>
	<path class="st2" d="M1239.9,219.4c6.5,1.4,12.1,6.9,18.1,10.6c3.1,1.9,6,4.5,10.3,3.9"/>
	<path class="st2" d="M560,6c1.3,14.4,8.8,26.5,16.3,37.8c18,27.1,38.5,52,67.6,68.4c3.8,2.2,23,12,23,12
		c10.8,6.6,21.6,12.4,34.1,14.9c13.7,2.7,27.1,6.2,40.1,11.7c11.4,4.9,23.7,7,35.9,9.3c23.9,4.5,48.1,1.7,72,2
		c28.6,0.3,57.4,0.3,86-1.4c16.2-1,32.1-0.8,48,0.6"/>
	<path class="st2" d="M888,468c-6.7,5.5-6.9,13.6-7.8,21c-2.8,22.8-9.1,44.7-14.3,67c-2.4,10.1-5.9,20-8.8,30c-0.5,1.9-2,3-0.9,6.1
		c2.8,7.9-0.6,14.7-7.1,19.9"/>
	<path class="st2" d="M1298,2895c-10.3-15.5-18.3-19.6-34.9-13.8c-21.1,7.4-42,15.6-60.2,29.6c-11.8,9.1-16.2,19.2-9.9,33.2"/>
	<path class="st2" d="M869,2953c14.3,22.4,22.2,47.6,32,72c5.5,13.7,13.6,26.4,17,41"/>
	<path class="st2" d="M2177,1951c0.7,4.8-3.3,7.2-6.1,8.8c-29.4,17.4-28.4,53.9-18.5,76c2.9,6.5,8.4,14.2,18.6,13.6
		c0.9-0.1,6.9,0.7,6,5.6"/>
	<path class="st2" d="M2177,2655c0.9-4.9-4.1-4.8-6.1-5.7c-15.4-7.2-31.3-13.4-46.8-20.3c-17.4-7.8-34.6-16.1-52-24.2
		c-5.7,1.2-7.3,8.3-13,9.3"/>
	<path class="st2" d="M1458,2693c12.4,22.7,21.9,46.5,30.1,71c1.7,5,5.4,9.3,7.8,14.1c3.8,7.6,7.4,15.3,11,23"/>
	<path class="st2" d="M74,725l0.3,10c0.1,23.9,2.2,47.5,7.2,70.9"/>
	<path class="st2" d="M1931,2523c1.4,7.7-4.8,12.6-7.2,18.9c-9.9,25.9-20.7,51.5-33.6,76.2c-9.7,18.7-2.2,43.9,14.7,56.9
		c2.1,1.6,4,3.3,6,5"/>
	<path class="st2" d="M942,216c-6,10.9-7.8,23.3-10.7,35.1c-4.7,18.7-7.6,37.9-11.3,56.9c-0.9,4.7-2,9.3-3,14"/>
	<path class="st2" d="M285,573c3.7,8.3,12.5,7.8,19.1,9.7c27.5,7.9,55.6,13.8,84,17.8c5.6,0.8,12.9,1.6,18.9-1.5"/>
	<path class="st2" d="M385,590c-26.9-8-54.1-15.9-82-17.6c-26.2-1.6-50.6-9.8-76-14.5c-12.7-2.3-25.3-5.5-38-6.6
		c-6.1-0.6-12.5,2.1-19,1.7c-5.2-0.3-9.8-1.5-12-7"/>
	<path class="st2" d="M945,190c-6,12.5,3,24.6,1.1,37c-3.7,24.2-8,48.3-14.5,71.9c-0.9,3.3,0,7.3-2.6,10.1"/>
	<path class="st2" d="M2177,2102c-37.4-1.2-65.7,16.6-90,43c-1.6,1.7-3.3,3.3-5,5"/>
	<path class="st2" d="M361.3,2731.5c0.1,2.9,0.2,7.7,0.3,10.4c0.1,5,0.4,10.1,0.8,15.2"/>
	<path class="st2" d="M153,3141c-20,20.5-42.4,38.3-64.1,56.9c-8,6.9-14.7,14.7-20.9,23.1"/>
	<path class="st2" d="M2095,2646c-14.9-5.2-33.2,1.2-45.8,18.1c-10.9,14.6-20.2,30.5-30.2,45.9c-2,3-4,6-6,9"/>
	<path class="st2" d="M283.6,3107c-3.9,4.6-7.8,9.2-12.2,13.4c-4,3.8-7.6,7.9-11.2,12.1"/>
	<path class="st2" d="M324.7,2989c-1.5,2-3.2,3.8-4.9,5.5c3.9,9.5,7.4,18.5,11.2,27.5"/>
	<path class="st2" d="M2127,1257.9c-26.1,13.4-43.9,34.8-55,63.1c-2.1,5.4-4.6,10.7-7,16"/>
	<path class="st2" d="M1381,3196c-7.8,9.6-13.2,21-17.3,32.2c-2.6,7.1-4.3,16.3,2.9,25.1c9.9,12,18.6,25.7,24.9,39.9
		c4.7,10.7,13.5,13.3,21.5,13.3c21.5,0,43.3-1.1,63-12"/>
	<path class="st2" d="M89,3248.4c2,2.2,4,4.4,6.1,6.6c3.2,3.4,6.9,7.3,12,8.6c4.5-4.1,8.3-8.9,12-13.8"/>
	<path class="st2" d="M254.5,2950.2c-10.2-2.5-20.7-1-31.4,1.8c-1.7,0.5-4,0.8-4.9,2"/>
	<path class="st2" d="M330.4,2737c-0.1,3.7-0.2,7.3-0.3,11c-0.1,6.5,0.2,13,1,19.3"/>
	<path class="st2" d="M345.8,2663.9c-2.7,4.4-4.9,9.2-6.6,14.2c-0.4,1.1-0.7,2.2-1,3.3"/>
	<path class="st2" d="M372.6,2641.1c-3.5,2-7,4-10.5,6.2c-0.8,0.5-1.6,1-2.4,1.6"/>
	<path class="st2" d="M467,2603c-4.7,2.3-9.6,4-14.5,5.5"/>
	<path class="st2" d="M2145,2749c16,2.6,15.9,17.4,20.8,28.1c2.7,5.9,1.6,12.3-0.5,19c-3.8,12-3.6,25.5-8.8,36.7
		c-8.3,17.9-15.4,36.8-28.5,52.2"/>
	<path class="st2" d="M534.1,2640.2c7.5-4.2,5.1-9.5,2.9-15.2"/>
	<path class="st2" d="M2021,2773c13.9,11.7,16.1,26.9,10.8,42.9c-4.9,14.9-10,29.9-20.6,42.2c-1.3,1.6-2.7,2.1-4.2,2.9"/>
	<path class="st2" d="M2092,2723c-5,11-9.5,22.2-15.1,32.9c-5.3,10.2-6.1,21.4-8.8,32.1c-0.3,1.2-0.6,3,0,3.9
		c4.8,7.1,9.8,14.1,15,21c0.5,0.6,2.6,0.1,3.9,0.1"/>
	<path class="st2" d="M2030,3047c-15.5,28.9-32.3,56.8-58,78"/>
	<path class="st2" d="M1967,2779c-9.2,21.4-20,42.5-21.7,66c-1.6,22.3-2,45.1,18.7,61"/>
	<path class="st2" d="M1954.2,1320.5c7.5,3.5,16.1,4.4,24.8,5.6c20.9,2.8,42.5,3.1,61.9,12.1c19.1,8.9,33.3,22.2,38.9,44.6
		c2.1,8.5,1.7,13.7-2.6,20.3c-3,4.5-6.4,9.1-6.6,14.9"/>
	<path class="st2" d="M1932,2530c13,8.3,25.5,17.7,39.1,24.8c23.2,12.1,47.5,22.4,70.8,34.4c9.2,4.8,19.3,8.4,27.1,15.8"/>
	<path class="st2" d="M1931,2901c-18.7-2.2-32.6,5.1-44.2,19.8c-8,10.2-18.1,18.8-24.8,30.2"/>
	<path class="st2" d="M852,592c-4.5,4.4-6.8,10.6-4.7,15.9c4,9.8,1,17.6-4.4,25.1c-11.1,15.3-24.4,26.9-44.9,26.1
		c-2.9-0.1-5.1-1-7-3.1"/>
	<path class="st2" d="M203,1090c-8.7,15.7-17.7,31.1-25.8,47.1c-4.2,8.3-12.6,14.1-14.2,23.9"/>
	<path class="st2" d="M2130,2536c-18.5,24-38.4,46.5-65.1,61.9c-0.5,0.3-1.3,0.1-0.9,1.6"/>
	<path class="st2" d="M2177,2425c0.3,26.9-8.8,50.7-23,73"/>
	<path class="st2" d="M1438,3307c7.9,20.4,19,39.2,30,58c2.6,4.4,5.3,8.7,8,13"/>
	<path class="st2" d="M972,73c-4.3,23.7-8.7,47.3-13,71"/>
	<path class="st2" d="M543,622c-1.7-0.7-4.1-2.4-4.9-1.8c-9.8,6.9-19.5,1.2-29.1-0.2c-11.7-1.6-23.3-3.4-35-4.9
		c-1.2-0.2-2.7,1.2-4,1.9"/>
	<path class="st2" d="M1884,2635c-9.6,10.9-14.2,24.6-20.9,37c-3,5.5-4.9,11.6-8.2,16.9c-2.5,4-1.8,8-1.9,12.1"/>
	<path class="st2" d="M920,354c-3.3,1-7.4,1.1-9.9,3.2c-12.2,10.3-27.2,15.9-40.2,24.7c-5.1,3.5-11.2,5.5-16.9,8.1"/>
	<path class="st2" d="M1069.3,667.4c-1.8,1.9-4.5,4-8.3,6.6"/>
	<path class="st2" d="M2068,2176c-7.5,10.2-6.3,22.7-8.6,34.1c-1.9,9.3-4.2,19.1-1.4,28.9"/>
	<path class="st2" d="M892,331c-16,10.3-32.2,20.4-47.9,31.2c-4.2,2.9-8.6,4.8-13.1,6.8"/>
	<path class="st2" d="M835,240c-21.8,9.9-41.2,23.7-61,37"/>
	<path class="st2" d="M827,210c-18.8,7.1-35.8,17.8-53,28c-2.3,1.4-4.7,2.7-7,4"/>
	<path class="st2" d="M861,268c-11,6-21.8,12.3-33.1,17.8c-4.9,2.4-9.2,5-13.2,8.9c-2.8,2.8-7.8,3.6-11.8,5.2"/>
	<path class="st2" d="M872,301c-20,11.7-40,23.3-60,35"/>
	<path class="st2" d="M925,389c-20.5,9.9-40.4,20.8-59,34"/>
	<path class="st2" d="M2177,3165c1.8,8.9-3.7,15.9-7.2,22.9c-6.1,12.1-13.8,23.5-20.8,35.1"/>
	<path class="st2" d="M1979,2954c-6.7,2.9-8.5,9.8-11.8,15.1c-8.7,14.1-20.5,23-37.2,24.9"/>
	<path class="st2" d="M1983,2937c-1.9,13.6-1.9,27.5-8.8,40.1c-3.3,6.1-5.5,13.1-7,20c-1.1,5.3,1.5,10.3,5.8,14"/>
	<path class="st2" d="M673,3c-21.3,7.4-37.9,22.4-56,35"/>
	<path class="st2" d="M1836,2578c7,5.3,13.9,10.7,21,16c7.7,5.7,17,7.6,26,10c2.3,0.6,4.6,0.1,5-2.9"/>
	<path class="st2" d="M1416,3461c8.8,11.1,10.7,24.5,11.9,38c0.7,7-0.4,14.3,1.3,20.9c2.4,9.1,1.5,17.4-1,26.2
		c-0.7,2.5-3.7,9.5,4.7,8.4"/>
	<path class="st2" d="M2148,3157c-5.7,11-10.9,22.3-17.2,32.9c-3.7,6.2-7.6,12.2-9.8,19.1"/>
	<path class="st2" d="M789,191c-5.2,8.1-14.4,9.7-22,13.9c-9.3,5.2-19.7,8.6-27,17.1"/>
	<path class="st2" d="M1606,2502c11.9,15.4,27.9,26.2,43,38c1.5,1.2,2.7,2.6,4,4"/>
	<path class="st2" d="M1986,2564c-5.4,8.8-15.6,13-21.2,21.9c-5.5,8.8-12.5,16.8-18.8,25.1"/>
	<path class="st2" d="M2068,2749c-2.3,4-4.9,7.9-7,12c-5.2,10.4-13.3,15.6-25,15c-3.2-0.2-6.3,0.1-9,2"/>
	<path class="st2" d="M1022,539c-15.3,10.8-32.1,18.9-49,27"/>
	<path class="st2" d="M978,86c-2.3,16.3-4.7,32.7-7,49"/>
	<path class="st2" d="M2091,1417c4.3-8.7,8.9-17.2,12.8-26.1c1-2.2,3.3-6.1-0.9-7.8c-2.3-0.9-5.9-1.2-7.8,0
		c-3.8,2.4-6.2,6.9-11.1,7.8"/>
	<path class="st2" d="M368,2709c-3.4-1.4-3.5-4.4-2.9-7c2.5-11.7,7.1-15.4,19.9-16.5"/>
	<path class="st2" d="M1980,3024c-13.6-3.6-25.8,0.6-35.8,9.3c-6.4,5.6-16.9,6-19.4,16.7c-1.9,7.9-6.2,15-11.8,21"/>
	<path class="st2" d="M2038,2619c9.4,15.8,7.1,31-2,46"/>
	<path class="st2" d="M326.4,2626.7c1.4,1,2.9,2,4.4,2.9"/>
	<path class="st2" d="M2069,1415c-8.2-7-17.3-12.4-27-17c-6-2.8-12-4.1-17,2"/>
	<path class="st2" d="M1913,2984c5,3,10.9,5.2,14.8,9.2c7.4,7.6,10.1,16.9,7.4,27.9c-1.3,5.4-4.6,10.9-2.2,16.9"/>
	<path class="st2" d="M54,3181.5c3.3,3.1,6.7,6.3,10.1,9.5c16.2-7.9,17.7-13.6,4.8-22.8c-4.1,4.1-8.5,8.5-12.8,12.8"/>
	<path class="st2" d="M1920,2826c-9.7,8.8-19.5,17.2-33,20.2c-3.5,0.8-6.7,0.3-10,0.8"/>
	<path class="st2" d="M114,3101c9.5,4.7,14.5,14.2,22,21.1c12.8,11.8,25.6,23.7,38,36c6.4,6.4,11.8,11.4,17.4,17"/>
	<path class="st2" d="M104.4,890c-4.4,9.8,3.2,17.3,5,25.9c5,23.9,19.5,43.8,30.5,65.1c1.8,3.4,3.5,6.9,5.3,10.4"/>
	<path class="st2" d="M1411,2844c-6-12-12-24-18-36"/>
	<path class="st2" d="M1421,3280c2.7-5.1-1.6-8.3-4.2-10.8c-7.3-7.2-13.7-15-19.8-23.7c-7,3.5-8.7,6.9-3.3,13.7
		c5.5,6.9,11,13.6,17.2,19.8c2.6,2.7,5.4,4.1,9,2"/>
	<path class="st2" d="M1462,3180c-6.3,7.7-12.2,15.7-15.9,25c-2.5,6.1-7.5,9.8-12.1,14"/>
	<path class="st2" d="M1470,2816c-6.5-13.3-10.4-28-21-39"/>
	<path class="st2" d="M1377,2811c7.6,12.4,13.4,25.7,19,39"/>
	<path class="st2" d="M1412,2796c6,13,12,26,18,39"/>
	<path class="st2" d="M2134.6,1421.5c-6.9-6.3-15.1-9.9-25.6-8.7c-4.1,0.5-8.7,2.1-13-0.3"/>
	<path class="st2" d="M582,630c-11.6-5.9-23.6-10.2-37-9c-0.3,0-0.8-0.1-1,0c-1.4,1.6-1.4,2.6,0,3"/>
	<path class="st2" d="M313.8,2922.8c11.1,12.7,23.2,24.9,36.2,36.2"/>
	<path class="st2" d="M358.7,2933.4c-7.7-6.8-15.3-13.8-24.7-18.5"/>
	<path class="st2" d="M299,2940c9.4,4.4,13.4,14.6,21.8,20.3c1.8,1.2-0.7,5.7,1.1,8.8c1,1.7,2.2,3.2,3.5,4.3"/>
	<path class="st2" d="M1367,2818c1.5,8,9.9,13.5,11.5,19.9c1.5,6.2,6.9,11.4,10.5,17.1"/>
	<path class="st2" d="M2079,2811c-10.6-1.7-20.2-0.3-28.1,7.9c-1.8,1.8-4.5,3.9-7.9,3.1"/>
	<path class="st2" d="M1329,2837c-1.2,9,3.2,16.7,7.3,23.8c2.7,4.7,5.2,9.4,7.7,14.2"/>
	<path class="st2" d="M1642,3213c-7.8-2.4-7.8-2.4-17.3,8.4c3.3,6.9,8.9,12.8,8.7,21.7c-0.1,4.2,2.2,9.7,7.6,12.1
		c7,3.1,14-0.4,15-8.1c0.4-3,0.7-6,1-9"/>
	<path class="st2" d="M1999,3111c-4.9,8.3-1.3,17.3-1.8,26c-0.2,3.1,3,4.8,5.8,6c9.3,4,18.7,8,28,12"/>
	<path class="st2" d="M1676,3239c4.8,5.6,10.1,9.8,18,6c7.6-3.7,12.3-8.8,9-18c-0.9-2.4,1.1-4,1.9-6c2.8-7.1,0.6-14.6-6-18.9
		c-3.3-2.1-5.6-4.5-7-8.1c-4.4-11.4-6.9-12.4-20-8"/>
	<path class="st2" d="M119,3222c-1.3,2.3-2.5,4.8-4,7c-7.6,11.5-12.9,11.2-20.3-1.6c4-5,5.9-11.9,12.2-15.7
		c5.8,1.1,7.2,7.6,12.2,9.3"/>
	<path class="st2" d="M691,3044c3.9,7.5,10.1,13.9,13,22"/>
	<path class="st2" d="M1635.4,2626.2c1,1.5,2,3,2.8,4.8c11.9,25,19.4,51.5,26.9,78.1c0.7,2.4,2,4.7,3,7"/>
	<path class="st2" d="M5,509c7.4,4.5,16.3,2.7,24.1,5.8c2.1,0.8,3.3,2.1,4.9,3.2"/>
	<path class="st2" d="M2077,2330c6.9,3.8,8.3,12.1,13.9,17.1c2.9,2.6,5.6,5.2,9.1,6.9"/>
	<path class="st2" d="M2078,2615c-0.7,3.7-0.8,7.6-2.1,11c-3.1,8,3,11.5,7.1,16"/>
	<path class="st2" d="M292,2947c6,5.7,12.1,11.3,18,17c2.9,2.8,6.1,4.1,10,4"/>
	<path class="st2" d="M184,551c-5.6-7.3-13.3-8.8-25-5"/>
	<path class="st2" d="M1446.4,2824.2c-0.2-2-1.4-4.5-3.2-8.3c-3.4-6.8-9.2-19.4-13.2-28"/>
	<path class="st2" d="M1353,2824.7c1.2,5.4,2,7.9,6.1,13.2c6.6,8.6,3.9,22,15.6,28.7"/>
	<path class="st2" d="M989,3c-4.8,1.5-3.9,5.4-4,9c-0.1,4.8,0.6,9.6-2,14"/>
	<path class="st2" d="M1589.7,2622.9c-2.3,5.2-8.2,7.7-13.6,10.3c-36.8,17.1-74.3,32.6-110.1,51.8c-23.9,12.9-47.1,27.6-72.3,37.3
		c-8.8,3.4-16.9,7.9-25,12.4"/>
	<path class="st2" d="M204,2448l-7.1-9c-10.9-12.8-18.7-27.5-27.2-41.9c-1.2-2-1.9-3.7-2.2-5.3"/>
	<path class="st2" d="M264.5,2531.8c-8.5-5-15.5-11.7-18.5-22.8c-2-7.2-8.1-12.7-10.9-19.5"/>
	<path class="st2" d="M300.8,2581.4c-4.2-2.1-6.4-5-6.8-9.2"/>
	<path class="st2" d="M1971,2557c-3,6.5-1.3,15.5-10,19"/>
	<path class="st2" d="M1751,2955c-8-1.6-12.6,6.6-20,7"/>
	<path class="st2" d="M1646,3191c-1.3,0.7-2.6,1.8-4,1.9c-13.4,1.7-16.1,6.8-10,19.1"/>
	<path class="st2" d="M1673,3199c-4.4,3.8-10.7,3-14.9,2.3c-4.4-0.8-7.8-7-11.7-10.9c3.5-8.4,10.6-8.7,16.5-7
		c4.9,1.4,12.4,3.2,9.5,12.7c-1,3.3,4.6,6.1,7.7,7.7c9.4,4.6,7.4,13,6.6,20.2c-0.7,7-11.5,13.6-18.7,14.1c-8.6,0.6-15.5-2.8-22-7.6"
		/>
	<path class="st2" d="M1654,3201c-7.9,7-13.9,13.8-9.4,26.2c2.6,7.1-6.1,6.3-10.6,7.8"/>
	<path class="st2" d="M2175,2818c-4.4,4.2-8.1,9.5-15,10"/>
	<path class="st2" d="M927,319c-1.3,5-2.7,10-4,15"/>
	<path class="st2" d="M2059,2247c-1.4,5.3,2.1,9.9,2,15"/>
	<path class="st2" d="M1612.8,222.6c-2-8.2-0.1-17.4-5.3-24.6"/>
	<path class="st2" d="M1595,3229c-3.5-3.1-4.3-5.9-1.1-10.1"/>
	<path class="st2" d="M701.3,2761.2c10.5,1.6,20.8,3.7,30.5,7.4"/>
</g>
</svg>
